<svg width="386" height="48" viewBox="0 0 386 48" fill="none" xmlns="http://www.w3.org/2000/svg">
<rect width="385.679" height="48" rx="8" fill="white"/>
<rect x="274.445" y="6" width="104.996" height="37" rx="8" fill="#DC7000"/>
<path d="M302.201 24.463C302.201 23.579 302.4 22.786 302.799 22.084C303.197 21.3733 303.739 20.8187 304.424 20.42C305.117 20.0213 305.884 19.822 306.725 19.822C307.713 19.822 308.575 20.0603 309.312 20.537C310.048 21.0137 310.586 21.6897 310.924 22.565H309.507C309.255 22.019 308.891 21.5987 308.415 21.304C307.947 21.0093 307.383 20.862 306.725 20.862C306.092 20.862 305.524 21.0093 305.022 21.304C304.519 21.5987 304.125 22.019 303.839 22.565C303.553 23.1023 303.41 23.735 303.41 24.463C303.41 25.1823 303.553 25.815 303.839 26.361C304.125 26.8983 304.519 27.3143 305.022 27.609C305.524 27.9037 306.092 28.051 306.725 28.051C307.383 28.051 307.947 27.908 308.415 27.622C308.891 27.3273 309.255 26.907 309.507 26.361H310.924C310.586 27.2277 310.048 27.8993 309.312 28.376C308.575 28.844 307.713 29.078 306.725 29.078C305.884 29.078 305.117 28.883 304.424 28.493C303.739 28.0943 303.197 27.544 302.799 26.842C302.4 26.14 302.201 25.347 302.201 24.463ZM315.792 29.117C315.124 29.117 314.518 28.9653 313.972 28.662C313.434 28.3587 313.01 27.9297 312.698 27.375C312.394 26.8117 312.243 26.1617 312.243 25.425C312.243 24.697 312.399 24.0557 312.711 23.501C313.031 22.9377 313.465 22.5087 314.011 22.214C314.557 21.9107 315.168 21.759 315.844 21.759C316.52 21.759 317.131 21.9107 317.677 22.214C318.223 22.5087 318.652 22.9333 318.964 23.488C319.284 24.0427 319.445 24.6883 319.445 25.425C319.445 26.1617 319.28 26.8117 318.951 27.375C318.63 27.9297 318.192 28.3587 317.638 28.662C317.083 28.9653 316.468 29.117 315.792 29.117ZM315.792 28.077C316.216 28.077 316.615 27.9773 316.988 27.778C317.36 27.5787 317.659 27.2797 317.885 26.881C318.119 26.4823 318.236 25.997 318.236 25.425C318.236 24.853 318.123 24.3677 317.898 23.969C317.672 23.5703 317.378 23.2757 317.014 23.085C316.65 22.8857 316.255 22.786 315.831 22.786C315.397 22.786 314.999 22.8857 314.635 23.085C314.279 23.2757 313.993 23.5703 313.777 23.969C313.56 24.3677 313.452 24.853 313.452 25.425C313.452 26.0057 313.556 26.4953 313.764 26.894C313.98 27.2927 314.266 27.5917 314.622 27.791C314.977 27.9817 315.367 28.077 315.792 28.077ZM324.471 21.746C325.338 21.746 326.04 22.0103 326.577 22.539C327.114 23.059 327.383 23.813 327.383 24.801V29H326.213V24.97C326.213 24.2593 326.035 23.7177 325.68 23.345C325.325 22.9637 324.839 22.773 324.224 22.773C323.6 22.773 323.102 22.968 322.729 23.358C322.365 23.748 322.183 24.3157 322.183 25.061V29H321V21.876H322.183V22.89C322.417 22.526 322.733 22.2443 323.132 22.045C323.539 21.8457 323.986 21.746 324.471 21.746ZM330.759 22.851V27.05C330.759 27.3967 330.832 27.6437 330.98 27.791C331.127 27.9297 331.383 27.999 331.747 27.999H332.618V29H331.552C330.893 29 330.399 28.8483 330.07 28.545C329.74 28.2417 329.576 27.7433 329.576 27.05V22.851H328.653V21.876H329.576V20.082H330.759V21.876H332.618V22.851H330.759ZM334.662 20.719C334.437 20.719 334.246 20.641 334.09 20.485C333.934 20.329 333.856 20.1383 333.856 19.913C333.856 19.6877 333.934 19.497 334.09 19.341C334.246 19.185 334.437 19.107 334.662 19.107C334.879 19.107 335.061 19.185 335.208 19.341C335.364 19.497 335.442 19.6877 335.442 19.913C335.442 20.1383 335.364 20.329 335.208 20.485C335.061 20.641 334.879 20.719 334.662 20.719ZM335.234 21.876V29H334.051V21.876H335.234ZM340.721 21.746C341.588 21.746 342.29 22.0103 342.827 22.539C343.364 23.059 343.633 23.813 343.633 24.801V29H342.463V24.97C342.463 24.2593 342.285 23.7177 341.93 23.345C341.575 22.9637 341.089 22.773 340.474 22.773C339.85 22.773 339.352 22.968 338.979 23.358C338.615 23.748 338.433 24.3157 338.433 25.061V29H337.25V21.876H338.433V22.89C338.667 22.526 338.983 22.2443 339.382 22.045C339.789 21.8457 340.236 21.746 340.721 21.746ZM351.884 21.876V29H350.701V27.947C350.475 28.311 350.159 28.597 349.752 28.805C349.353 29.0043 348.911 29.104 348.426 29.104C347.871 29.104 347.373 28.9913 346.931 28.766C346.489 28.532 346.138 28.1853 345.878 27.726C345.626 27.2667 345.501 26.7077 345.501 26.049V21.876H346.671V25.893C346.671 26.595 346.848 27.1367 347.204 27.518C347.559 27.8907 348.044 28.077 348.66 28.077C349.292 28.077 349.791 27.882 350.155 27.492C350.519 27.102 350.701 26.5343 350.701 25.789V21.876H351.884ZM360.381 25.165C360.381 25.3903 360.368 25.6287 360.342 25.88H354.648C354.691 26.582 354.93 27.1323 355.363 27.531C355.805 27.921 356.338 28.116 356.962 28.116C357.473 28.116 357.898 27.999 358.236 27.765C358.583 27.5223 358.825 27.2017 358.964 26.803H360.238C360.047 27.4877 359.666 28.0467 359.094 28.48C358.522 28.9047 357.811 29.117 356.962 29.117C356.286 29.117 355.679 28.9653 355.142 28.662C354.613 28.3587 354.197 27.9297 353.894 27.375C353.591 26.8117 353.439 26.1617 353.439 25.425C353.439 24.6883 353.586 24.0427 353.881 23.488C354.176 22.9333 354.587 22.5087 355.116 22.214C355.653 21.9107 356.269 21.759 356.962 21.759C357.638 21.759 358.236 21.9063 358.756 22.201C359.276 22.4957 359.675 22.903 359.952 23.423C360.238 23.9343 360.381 24.515 360.381 25.165ZM359.159 24.918C359.159 24.4673 359.059 24.0817 358.86 23.761C358.661 23.4317 358.388 23.1847 358.041 23.02C357.703 22.8467 357.326 22.76 356.91 22.76C356.312 22.76 355.801 22.9507 355.376 23.332C354.96 23.7133 354.722 24.242 354.661 24.918H359.159Z" fill="white"/>
<path d="M36.1495 20.654V24.047H39.5945V24.801H36.1495V28.246H39.9845V29H35.2395V19.9H39.9845V20.654H36.1495ZM45.1056 21.772C45.9549 21.772 46.6483 22.0363 47.1856 22.565C47.7229 23.085 47.9916 23.8433 47.9916 24.84V29H47.0946V24.944C47.0946 24.1727 46.8996 23.5833 46.5096 23.176C46.1283 22.7687 45.6039 22.565 44.9366 22.565C44.2519 22.565 43.7059 22.7817 43.2986 23.215C42.8913 23.6483 42.6876 24.2853 42.6876 25.126V29H41.7776V21.902H42.6876V23.111C42.9129 22.6777 43.2379 22.3483 43.6626 22.123C44.0873 21.889 44.5683 21.772 45.1056 21.772ZM51.1871 22.669V27.076C51.1871 27.5093 51.2695 27.8083 51.4341 27.973C51.5988 28.1377 51.8891 28.22 52.3051 28.22H53.1371V29H52.1621C51.5208 29 51.0441 28.8527 50.7321 28.558C50.4201 28.2547 50.2641 27.7607 50.2641 27.076V22.669H49.2761V21.902H50.2641V20.121H51.1871V21.902H53.1371V22.669H51.1871ZM61.0599 25.087C61.0599 25.399 61.0513 25.6373 61.0339 25.802H55.1449C55.1709 26.3393 55.3009 26.7987 55.5349 27.18C55.7689 27.5613 56.0766 27.8517 56.4579 28.051C56.8393 28.2417 57.2553 28.337 57.7059 28.337C58.2953 28.337 58.7893 28.194 59.1879 27.908C59.5953 27.622 59.8639 27.2363 59.9939 26.751H60.9559C60.7826 27.4443 60.4099 28.012 59.8379 28.454C59.2746 28.8873 58.5639 29.104 57.7059 29.104C57.0386 29.104 56.4406 28.9567 55.9119 28.662C55.3833 28.3587 54.9673 27.934 54.6639 27.388C54.3693 26.8333 54.2219 26.1877 54.2219 25.451C54.2219 24.7143 54.3693 24.0687 54.6639 23.514C54.9586 22.9593 55.3703 22.5347 55.8989 22.24C56.4276 21.9453 57.0299 21.798 57.7059 21.798C58.3819 21.798 58.9713 21.9453 59.4739 22.24C59.9853 22.5347 60.3753 22.9333 60.6439 23.436C60.9213 23.93 61.0599 24.4803 61.0599 25.087ZM60.1369 25.061C60.1456 24.5323 60.0373 24.0817 59.8119 23.709C59.5953 23.3363 59.2963 23.0547 58.9149 22.864C58.5336 22.6733 58.1176 22.578 57.6669 22.578C56.9909 22.578 56.4146 22.7947 55.9379 23.228C55.4613 23.6613 55.1969 24.2723 55.1449 25.061H60.1369ZM63.6349 23.163C63.8342 22.721 64.1375 22.3787 64.5449 22.136C64.9609 21.8933 65.4679 21.772 66.0659 21.772V22.721H65.8189C65.1602 22.721 64.6315 22.8987 64.2329 23.254C63.8342 23.6093 63.6349 24.203 63.6349 25.035V29H62.7249V21.902H63.6349V23.163ZM77.4242 25.087C77.4242 25.399 77.4155 25.6373 77.3982 25.802H71.5092C71.5352 26.3393 71.6652 26.7987 71.8992 27.18C72.1332 27.5613 72.4409 27.8517 72.8222 28.051C73.2035 28.2417 73.6195 28.337 74.0702 28.337C74.6595 28.337 75.1535 28.194 75.5522 27.908C75.9595 27.622 76.2282 27.2363 76.3582 26.751H77.3202C77.1469 27.4443 76.7742 28.012 76.2022 28.454C75.6389 28.8873 74.9282 29.104 74.0702 29.104C73.4029 29.104 72.8049 28.9567 72.2762 28.662C71.7475 28.3587 71.3315 27.934 71.0282 27.388C70.7335 26.8333 70.5862 26.1877 70.5862 25.451C70.5862 24.7143 70.7335 24.0687 71.0282 23.514C71.3229 22.9593 71.7345 22.5347 72.2632 22.24C72.7919 21.9453 73.3942 21.798 74.0702 21.798C74.7462 21.798 75.3355 21.9453 75.8382 22.24C76.3495 22.5347 76.7395 22.9333 77.0082 23.436C77.2855 23.93 77.4242 24.4803 77.4242 25.087ZM76.5012 25.061C76.5099 24.5323 76.4015 24.0817 76.1762 23.709C75.9595 23.3363 75.6605 23.0547 75.2792 22.864C74.8979 22.6733 74.4819 22.578 74.0312 22.578C73.3552 22.578 72.7789 22.7947 72.3022 23.228C71.8255 23.6613 71.5612 24.2723 71.5092 25.061H76.5012ZM87.5391 21.772C88.3711 21.772 89.0471 22.0363 89.5671 22.565C90.0958 23.085 90.3601 23.8433 90.3601 24.84V29H89.4631V24.944C89.4631 24.1727 89.2768 23.5833 88.9041 23.176C88.5314 22.7687 88.0244 22.565 87.3831 22.565C86.7158 22.565 86.1828 22.786 85.7841 23.228C85.3854 23.67 85.1861 24.3113 85.1861 25.152V29H84.2891V24.944C84.2891 24.1727 84.1028 23.5833 83.7301 23.176C83.3574 22.7687 82.8461 22.565 82.1961 22.565C81.5288 22.565 80.9958 22.786 80.5971 23.228C80.1984 23.67 79.9991 24.3113 79.9991 25.152V29H79.0891V21.902H79.9991V23.124C80.2244 22.682 80.5451 22.3483 80.9611 22.123C81.3771 21.889 81.8408 21.772 82.3521 21.772C82.9674 21.772 83.5048 21.9193 83.9641 22.214C84.4321 22.5087 84.7701 22.942 84.9781 23.514C85.1688 22.9507 85.4938 22.5217 85.9531 22.227C86.4211 21.9237 86.9498 21.772 87.5391 21.772ZM91.9651 25.438C91.9651 24.71 92.1081 24.073 92.3941 23.527C92.6888 22.9723 93.0918 22.5477 93.6031 22.253C94.1231 21.9497 94.7081 21.798 95.3581 21.798C96.0341 21.798 96.6148 21.954 97.1001 22.266C97.5941 22.578 97.9494 22.9767 98.1661 23.462V21.902H99.0761V29H98.1661V27.427C97.9408 27.9123 97.5811 28.3153 97.0871 28.636C96.6018 28.948 96.0211 29.104 95.3451 29.104C94.7038 29.104 94.1231 28.9523 93.6031 28.649C93.0918 28.3457 92.6888 27.9167 92.3941 27.362C92.1081 26.8073 91.9651 26.166 91.9651 25.438ZM98.1661 25.451C98.1661 24.879 98.0491 24.3763 97.8151 23.943C97.5811 23.5097 97.2604 23.176 96.8531 22.942C96.4544 22.708 96.0124 22.591 95.5271 22.591C95.0244 22.591 94.5738 22.7037 94.1751 22.929C93.7764 23.1543 93.4601 23.4837 93.2261 23.917C93.0008 24.3417 92.8881 24.8487 92.8881 25.438C92.8881 26.0187 93.0008 26.53 93.2261 26.972C93.4601 27.4053 93.7764 27.739 94.1751 27.973C94.5738 28.1983 95.0244 28.311 95.5271 28.311C96.0124 28.311 96.4544 28.194 96.8531 27.96C97.2604 27.726 97.5811 27.3923 97.8151 26.959C98.0491 26.5257 98.1661 26.023 98.1661 25.451ZM101.609 20.563C101.427 20.563 101.271 20.498 101.141 20.368C101.011 20.238 100.946 20.0777 100.946 19.887C100.946 19.6963 101.011 19.5403 101.141 19.419C101.271 19.289 101.427 19.224 101.609 19.224C101.791 19.224 101.947 19.289 102.077 19.419C102.207 19.5403 102.272 19.6963 102.272 19.887C102.272 20.0777 102.207 20.238 102.077 20.368C101.947 20.498 101.791 20.563 101.609 20.563ZM102.064 21.902V29H101.154V21.902H102.064ZM105.034 19.38V29H104.124V19.38H105.034ZM110.246 25.438C110.246 24.71 110.389 24.073 110.675 23.527C110.97 22.9723 111.373 22.5477 111.884 22.253C112.404 21.9497 112.989 21.798 113.639 21.798C114.315 21.798 114.896 21.954 115.381 22.266C115.875 22.578 116.231 22.9767 116.447 23.462V21.902H117.357V29H116.447V27.427C116.222 27.9123 115.862 28.3153 115.368 28.636C114.883 28.948 114.302 29.104 113.626 29.104C112.985 29.104 112.404 28.9523 111.884 28.649C111.373 28.3457 110.97 27.9167 110.675 27.362C110.389 26.8073 110.246 26.166 110.246 25.438ZM116.447 25.451C116.447 24.879 116.33 24.3763 116.096 23.943C115.862 23.5097 115.542 23.176 115.134 22.942C114.736 22.708 114.294 22.591 113.808 22.591C113.306 22.591 112.855 22.7037 112.456 22.929C112.058 23.1543 111.741 23.4837 111.507 23.917C111.282 24.3417 111.169 24.8487 111.169 25.438C111.169 26.0187 111.282 26.53 111.507 26.972C111.741 27.4053 112.058 27.739 112.456 27.973C112.855 28.1983 113.306 28.311 113.808 28.311C114.294 28.311 114.736 28.194 115.134 27.96C115.542 27.726 115.862 27.3923 116.096 26.959C116.33 26.5257 116.447 26.023 116.447 25.451ZM119.019 25.438C119.019 24.71 119.166 24.073 119.461 23.527C119.755 22.9723 120.158 22.5477 120.67 22.253C121.19 21.9497 121.775 21.798 122.425 21.798C123.049 21.798 123.612 21.9497 124.115 22.253C124.617 22.5563 124.986 22.9507 125.22 23.436V19.38H126.13V29H125.22V27.414C125.003 27.908 124.648 28.3153 124.154 28.636C123.66 28.948 123.079 29.104 122.412 29.104C121.762 29.104 121.177 28.9523 120.657 28.649C120.145 28.3457 119.742 27.9167 119.448 27.362C119.162 26.8073 119.019 26.166 119.019 25.438ZM125.22 25.451C125.22 24.879 125.103 24.3763 124.869 23.943C124.635 23.5097 124.314 23.176 123.907 22.942C123.508 22.708 123.066 22.591 122.581 22.591C122.078 22.591 121.627 22.7037 121.229 22.929C120.83 23.1543 120.514 23.4837 120.28 23.917C120.054 24.3417 119.942 24.8487 119.942 25.438C119.942 26.0187 120.054 26.53 120.28 26.972C120.514 27.4053 120.83 27.739 121.229 27.973C121.627 28.1983 122.078 28.311 122.581 28.311C123.066 28.311 123.508 28.194 123.907 27.96C124.314 27.726 124.635 27.3923 124.869 26.959C125.103 26.5257 125.22 26.023 125.22 25.451ZM127.791 25.438C127.791 24.71 127.939 24.073 128.233 23.527C128.528 22.9723 128.931 22.5477 129.442 22.253C129.962 21.9497 130.547 21.798 131.197 21.798C131.821 21.798 132.385 21.9497 132.887 22.253C133.39 22.5563 133.758 22.9507 133.992 23.436V19.38H134.902V29H133.992V27.414C133.776 27.908 133.42 28.3153 132.926 28.636C132.432 28.948 131.852 29.104 131.184 29.104C130.534 29.104 129.949 28.9523 129.429 28.649C128.918 28.3457 128.515 27.9167 128.22 27.362C127.934 26.8073 127.791 26.166 127.791 25.438ZM133.992 25.451C133.992 24.879 133.875 24.3763 133.641 23.943C133.407 23.5097 133.087 23.176 132.679 22.942C132.281 22.708 131.839 22.591 131.353 22.591C130.851 22.591 130.4 22.7037 130.001 22.929C129.603 23.1543 129.286 23.4837 129.052 23.917C128.827 24.3417 128.714 24.8487 128.714 25.438C128.714 26.0187 128.827 26.53 129.052 26.972C129.286 27.4053 129.603 27.739 130.001 27.973C130.4 28.1983 130.851 28.311 131.353 28.311C131.839 28.311 132.281 28.194 132.679 27.96C133.087 27.726 133.407 27.3923 133.641 26.959C133.875 26.5257 133.992 26.023 133.992 25.451ZM137.89 23.163C138.089 22.721 138.392 22.3787 138.8 22.136C139.216 21.8933 139.723 21.772 140.321 21.772V22.721H140.074C139.415 22.721 138.886 22.8987 138.488 23.254C138.089 23.6093 137.89 24.203 137.89 25.035V29H136.98V21.902H137.89V23.163ZM148.112 25.087C148.112 25.399 148.103 25.6373 148.086 25.802H142.197C142.223 26.3393 142.353 26.7987 142.587 27.18C142.821 27.5613 143.128 27.8517 143.51 28.051C143.891 28.2417 144.307 28.337 144.758 28.337C145.347 28.337 145.841 28.194 146.24 27.908C146.647 27.622 146.916 27.2363 147.046 26.751H148.008C147.834 27.4443 147.462 28.012 146.89 28.454C146.326 28.8873 145.616 29.104 144.758 29.104C144.09 29.104 143.492 28.9567 142.964 28.662C142.435 28.3587 142.019 27.934 141.716 27.388C141.421 26.8333 141.274 26.1877 141.274 25.451C141.274 24.7143 141.421 24.0687 141.716 23.514C142.01 22.9593 142.422 22.5347 142.951 22.24C143.479 21.9453 144.082 21.798 144.758 21.798C145.434 21.798 146.023 21.9453 146.526 22.24C147.037 22.5347 147.427 22.9333 147.696 23.436C147.973 23.93 148.112 24.4803 148.112 25.087ZM147.189 25.061C147.197 24.5323 147.089 24.0817 146.864 23.709C146.647 23.3363 146.348 23.0547 145.967 22.864C145.585 22.6733 145.169 22.578 144.719 22.578C144.043 22.578 143.466 22.7947 142.99 23.228C142.513 23.6613 142.249 24.2723 142.197 25.061H147.189ZM152.221 29.104C151.406 29.104 150.739 28.9177 150.219 28.545C149.707 28.1637 149.421 27.648 149.361 26.998H150.297C150.34 27.3967 150.526 27.7217 150.856 27.973C151.194 28.2157 151.644 28.337 152.208 28.337C152.702 28.337 153.087 28.22 153.365 27.986C153.651 27.752 153.794 27.4617 153.794 27.115C153.794 26.8723 153.716 26.673 153.56 26.517C153.404 26.361 153.204 26.2397 152.962 26.153C152.728 26.0577 152.407 25.958 152 25.854C151.471 25.7153 151.042 25.5767 150.713 25.438C150.383 25.2993 150.102 25.0957 149.868 24.827C149.642 24.5497 149.53 24.1813 149.53 23.722C149.53 23.3753 149.634 23.0547 149.842 22.76C150.05 22.4653 150.344 22.2313 150.726 22.058C151.107 21.8847 151.54 21.798 152.026 21.798C152.788 21.798 153.404 21.993 153.872 22.383C154.34 22.7643 154.591 23.293 154.626 23.969H153.716C153.69 23.553 153.525 23.2193 153.222 22.968C152.927 22.708 152.52 22.578 152 22.578C151.54 22.578 151.168 22.6863 150.882 22.903C150.596 23.1197 150.453 23.3883 150.453 23.709C150.453 23.9863 150.535 24.216 150.7 24.398C150.873 24.5713 151.085 24.71 151.337 24.814C151.588 24.9093 151.926 25.0177 152.351 25.139C152.862 25.2777 153.269 25.412 153.573 25.542C153.876 25.672 154.136 25.8627 154.353 26.114C154.569 26.3653 154.682 26.699 154.691 27.115C154.691 27.4963 154.587 27.8387 154.379 28.142C154.171 28.4367 153.88 28.6707 153.508 28.844C153.135 29.0173 152.706 29.104 152.221 29.104ZM158.848 29.104C158.033 29.104 157.366 28.9177 156.846 28.545C156.334 28.1637 156.048 27.648 155.988 26.998H156.924C156.967 27.3967 157.153 27.7217 157.483 27.973C157.821 28.2157 158.271 28.337 158.835 28.337C159.329 28.337 159.714 28.22 159.992 27.986C160.278 27.752 160.421 27.4617 160.421 27.115C160.421 26.8723 160.343 26.673 160.187 26.517C160.031 26.361 159.831 26.2397 159.589 26.153C159.355 26.0577 159.034 25.958 158.627 25.854C158.098 25.7153 157.669 25.5767 157.34 25.438C157.01 25.2993 156.729 25.0957 156.495 24.827C156.269 24.5497 156.157 24.1813 156.157 23.722C156.157 23.3753 156.261 23.0547 156.469 22.76C156.677 22.4653 156.971 22.2313 157.353 22.058C157.734 21.8847 158.167 21.798 158.653 21.798C159.415 21.798 160.031 21.993 160.499 22.383C160.967 22.7643 161.218 23.293 161.253 23.969H160.343C160.317 23.553 160.152 23.2193 159.849 22.968C159.554 22.708 159.147 22.578 158.627 22.578C158.167 22.578 157.795 22.6863 157.509 22.903C157.223 23.1197 157.08 23.3883 157.08 23.709C157.08 23.9863 157.162 24.216 157.327 24.398C157.5 24.5713 157.712 24.71 157.964 24.814C158.215 24.9093 158.553 25.0177 158.978 25.139C159.489 25.2777 159.896 25.412 160.2 25.542C160.503 25.672 160.763 25.8627 160.98 26.114C161.196 26.3653 161.309 26.699 161.318 27.115C161.318 27.4963 161.214 27.8387 161.006 28.142C160.798 28.4367 160.507 28.6707 160.135 28.844C159.762 29.0173 159.333 29.104 158.848 29.104Z" fill="#898989"/>
</svg>
